<svg id="svg" version="1.1" xmlns="http://www.w3.org/2000/svg" xmlns:xlink="http://www.w3.org/1999/xlink" width="400" height="258.3818770226537" viewBox="0, 0, 400,258.3818770226537"><g id="svgg"><path id="path0" d="M115.116 35.310 C 79.762 39.458,54.692 66.071,53.570 100.646 C 51.924 151.347,105.116 185.637,150.775 163.310 C 191.198 143.543,201.231 90.521,170.883 57.047 C 157.082 41.824,134.528 33.033,115.116 35.310 M271.059 35.303 C 228.714 40.383,201.549 78.701,211.637 119.121 C 224.407 170.293,288.762 187.568,325.586 149.708 C 359.730 114.605,346.243 55.993,300.129 39.077 C 292.041 36.110,278.733 34.382,271.059 35.303 M123.514 74.684 C 147.126 77.146,157.347 105.355,140.698 122.112 C 123.011 139.914,93.023 127.546,93.023 102.449 C 93.023 87.789,104.189 75.755,118.863 74.600 C 119.503 74.550,120.258 74.491,120.543 74.468 C 120.827 74.446,122.164 74.543,123.514 74.684 M282.913 75.094 C 303.448 78.768,312.518 104.035,299.136 120.288 C 282.479 140.520,249.818 128.805,249.775 102.584 C 249.746 84.666,265.122 71.911,282.913 75.094 M198.966 134.657 C 198.966 136.016,193.173 146.472,189.860 151.093 C 188.593 152.859,187.615 154.440,187.685 154.607 C 187.755 154.773,189.305 156.730,191.128 158.955 C 192.952 161.179,195.607 164.458,197.028 166.240 C 198.450 168.022,199.729 169.480,199.871 169.480 C 200.125 169.479,211.285 155.838,211.426 155.355 C 211.466 155.219,210.491 153.725,209.259 152.035 C 205.739 147.206,199.483 136.088,199.483 134.664 C 199.483 134.500,199.367 134.367,199.225 134.367 C 199.083 134.367,198.966 134.497,198.966 134.657 " stroke="none" fill="#fbfbfb" fill-rule="evenodd"></path><path id="path1" d="M160.930 0.499 C 149.514 4.149,149.572 20.758,161.014 24.319 C 170.600 27.303,179.692 18.371,176.845 8.768 C 174.877 2.131,167.619 -1.640,160.930 0.499 M195.038 0.485 C 181.650 4.889,184.847 24.806,198.943 24.806 C 215.277 24.806,215.680 0.572,199.354 0.085 C 197.101 0.018,196.206 0.101,195.038 0.485 M228.888 0.485 C 215.532 4.878,218.706 24.806,232.761 24.806 C 249.129 24.806,249.563 0.573,233.204 0.085 C 230.951 0.018,230.056 0.101,228.888 0.485 M112.145 18.123 C 96.641 19.711,80.203 26.282,69.002 35.369 C 67.927 36.241,66.763 36.614,51.948 40.830 L 36.047 45.356 35.973 46.128 C 35.933 46.552,36.709 54.109,37.698 62.920 L 39.495 78.941 38.754 81.978 C 23.811 143.210,78.035 198.488,139.664 184.850 C 152.755 181.953,165.643 175.582,175.484 167.144 L 176.936 165.898 188.243 179.848 C 194.462 187.521,199.694 193.798,199.870 193.798 C 200.046 193.798,205.118 187.701,211.142 180.249 C 217.165 172.796,222.151 166.694,222.222 166.687 C 222.293 166.681,223.419 167.529,224.724 168.572 C 255.340 193.042,299.937 192.995,330.491 168.460 C 355.927 148.036,367.582 113.763,359.793 82.300 L 359.153 79.716 361.032 62.735 C 362.257 51.665,362.823 45.671,362.657 45.515 C 362.517 45.384,355.216 43.217,346.433 40.698 L 330.462 36.120 327.924 34.213 C 285.605 2.418,223.406 18.210,200.765 66.497 C 199.989 68.152,199.296 69.506,199.225 69.506 C 199.154 69.506,198.461 68.152,197.685 66.497 C 182.365 33.825,148.089 14.442,112.145 18.123 M195.555 28.909 C 182.114 33.330,185.328 53.230,199.483 53.230 C 211.444 53.230,216.609 38.061,207.109 30.834 C 204.157 28.588,199.096 27.745,195.555 28.909 M128.682 35.288 C 175.026 40.654,202.389 90.060,182.196 131.912 C 161.839 174.106,106.205 183.660,73.137 150.640 C 47.997 125.536,46.474 85.485,69.631 58.453 C 84.168 41.483,106.505 32.721,128.682 35.288 M286.951 35.520 C 339.210 43.906,362.820 104.239,329.905 145.282 C 304.561 176.886,257.078 179.081,228.671 149.963 C 193.391 113.802,208.535 53.408,256.747 37.995 C 265.771 35.110,278.102 34.100,286.951 35.520 M200.540 136.489 C 202.704 141.501,206.489 147.956,210.041 152.693 C 210.843 153.763,211.590 154.784,211.702 154.961 C 212.118 155.624,199.990 170.137,199.478 169.588 C 198.798 168.860,187.871 155.316,187.554 154.808 C 187.320 154.433,187.657 153.809,189.529 151.144 C 193.165 145.970,196.298 140.426,198.315 135.594 C 199.240 133.381,199.189 133.361,200.540 136.489 M291.561 235.487 C 289.028 237.024,288.069 238.319,288.784 239.237 C 288.822 239.287,290.141 238.659,291.714 237.841 L 294.574 236.355 294.574 235.103 C 294.574 233.575,294.751 233.552,291.561 235.487 M25.467 240.163 C 22.463 241.279,21.157 244.323,22.456 247.182 C 23.088 248.575,24.164 249.203,27.287 250.006 C 31.694 251.138,33.124 253.389,30.721 255.411 C 28.771 257.051,24.806 256.193,24.806 254.130 C 24.806 253.838,24.469 253.747,23.385 253.747 C 21.797 253.747,21.698 253.903,22.332 255.419 C 23.426 258.039,28.172 259.163,31.467 257.583 C 34.406 256.174,35.190 252.096,32.988 249.669 C 32.497 249.128,30.341 248.339,27.156 247.533 C 24.580 246.882,23.741 244.682,25.426 242.997 C 27.106 241.318,30.962 242.185,31.000 244.251 C 31.015 245.125,33.850 244.890,33.850 244.015 C 33.850 241.036,29.053 238.832,25.467 240.163 M42.881 240.130 C 33.507 242.777,34.754 257.159,44.455 258.279 C 54.797 259.472,59.084 244.945,49.663 240.628 C 47.920 239.829,44.767 239.598,42.881 240.130 M91.718 240.130 C 85.144 241.987,83.043 250.745,87.983 255.710 C 91.831 259.578,99.130 258.999,102.052 254.595 L 102.872 253.359 101.390 253.280 C 99.948 253.204,99.882 253.230,98.949 254.250 C 95.974 257.506,90.208 256.449,88.488 252.333 C 85.556 245.317,93.587 238.782,98.770 243.965 C 99.964 245.159,100.093 245.220,101.433 245.220 C 103.066 245.220,103.084 245.179,102.104 243.655 C 100.105 240.547,95.626 239.027,91.718 240.130 M118.075 240.130 C 108.701 242.777,109.948 257.159,119.649 258.279 C 129.991 259.472,134.278 244.945,124.857 240.628 C 123.114 239.829,119.961 239.598,118.075 240.130 M167.069 240.163 C 164.065 241.279,162.759 244.323,164.058 247.182 C 164.690 248.575,165.766 249.203,168.889 250.006 C 173.296 251.138,174.726 253.389,172.323 255.411 C 170.373 257.051,166.408 256.193,166.408 254.130 C 166.408 253.838,166.071 253.747,164.987 253.747 C 163.399 253.747,163.300 253.903,163.934 255.419 C 165.028 258.039,169.774 259.163,173.069 257.583 C 176.008 256.174,176.792 252.096,174.590 249.669 C 174.099 249.128,171.943 248.339,168.758 247.533 C 166.182 246.882,165.343 244.682,167.028 242.997 C 168.708 241.318,172.564 242.185,172.602 244.251 C 172.617 245.125,175.452 244.890,175.452 244.015 C 175.452 241.036,170.655 238.832,167.069 240.163 M219.625 240.130 C 213.050 241.987,210.950 250.745,215.890 255.710 C 219.738 259.578,227.036 258.999,229.959 254.595 L 230.779 253.359 229.297 253.280 C 227.855 253.204,227.789 253.230,226.856 254.250 C 223.881 257.506,218.115 256.449,216.395 252.333 C 213.463 245.317,221.494 238.782,226.677 243.965 C 227.871 245.159,228.000 245.220,229.340 245.220 C 230.973 245.220,230.991 245.179,230.011 243.655 C 228.012 240.547,223.533 239.027,219.625 240.130 M257.965 240.048 C 251.561 241.403,249.000 250.266,253.526 255.408 C 257.562 259.993,266.106 258.876,268.919 253.395 C 270.722 249.883,269.324 243.350,266.419 241.709 C 263.322 239.960,260.762 239.457,257.965 240.048 M289.135 240.130 C 279.760 242.777,281.008 257.159,290.708 258.279 C 301.051 259.472,305.337 244.945,295.916 240.628 C 294.173 239.829,291.020 239.598,289.135 240.130 M309.548 240.130 C 301.990 242.265,300.754 253.411,307.660 257.158 C 313.888 260.537,321.447 256.232,321.447 249.307 L 321.447 248.062 316.408 248.062 L 311.370 248.062 311.370 249.225 L 311.370 250.388 314.987 250.388 C 318.924 250.388,318.798 250.328,318.305 251.975 C 316.831 256.893,309.756 257.672,306.823 253.239 C 302.427 246.597,311.051 238.417,316.600 243.965 C 317.793 245.159,317.922 245.220,319.263 245.220 C 320.896 245.220,320.913 245.179,319.933 243.655 C 317.934 240.547,313.455 239.027,309.548 240.130 M335.646 240.130 C 329.071 241.987,326.971 250.745,331.910 255.710 C 335.758 259.578,343.057 258.999,345.980 254.595 L 346.800 253.359 345.318 253.280 C 343.876 253.204,343.810 253.230,342.877 254.250 C 339.901 257.506,334.135 256.449,332.415 252.333 C 329.484 245.317,337.515 238.782,342.698 243.965 C 343.891 245.159,344.021 245.220,345.361 245.220 C 346.994 245.220,347.011 245.179,346.031 243.655 C 344.032 240.547,339.553 239.027,335.646 240.130 M371.204 240.163 C 368.200 241.279,366.894 244.323,368.192 247.182 C 368.825 248.575,369.900 249.203,373.024 250.006 C 377.431 251.138,378.860 253.389,376.457 255.411 C 374.508 257.051,370.543 256.193,370.543 254.130 C 370.543 253.838,370.206 253.747,369.121 253.747 C 367.533 253.747,367.435 253.903,368.068 255.419 C 369.163 258.039,373.908 259.163,377.203 257.583 C 380.142 256.174,380.926 252.096,378.724 249.669 C 378.234 249.128,376.078 248.339,372.892 247.533 C 370.316 246.882,369.478 244.682,371.163 242.997 C 372.843 241.318,376.698 242.185,376.736 244.251 C 376.752 245.125,379.587 244.890,379.587 244.015 C 379.587 241.036,374.789 238.832,371.204 240.163 M57.623 249.096 L 57.623 258.140 62.145 258.140 L 66.667 258.140 66.667 257.235 L 66.667 256.331 63.566 256.331 L 60.465 256.331 60.465 248.191 L 60.465 240.052 59.044 240.052 L 57.623 240.052 57.623 249.096 M68.520 246.835 C 68.646 256.448,69.664 258.154,75.323 258.236 C 81.238 258.322,82.429 256.374,82.429 246.608 L 82.429 240.052 81.153 240.052 L 79.876 240.052 79.796 246.881 C 79.708 254.402,79.722 254.336,77.937 255.669 C 77.009 256.361,74.429 256.392,73.180 255.726 C 71.395 254.774,71.320 254.414,71.319 246.835 L 71.318 240.052 69.874 240.052 L 68.431 240.052 68.520 246.835 M105.943 249.096 L 105.943 258.140 107.364 258.140 L 108.786 258.140 108.786 249.096 L 108.786 240.052 107.364 240.052 L 105.943 240.052 105.943 249.096 M132.817 249.096 L 132.817 258.140 134.233 258.140 L 135.650 258.140 135.719 251.383 L 135.788 244.627 140.285 251.383 L 144.782 258.140 146.035 258.140 L 147.287 258.140 147.287 249.096 L 147.287 240.052 145.995 240.052 L 144.703 240.052 144.689 246.964 C 144.674 254.752,144.870 254.335,142.765 251.048 C 142.196 250.161,140.656 247.850,139.341 245.913 C 138.026 243.976,136.951 242.327,136.951 242.249 C 136.951 241.210,135.502 240.052,134.203 240.052 L 132.817 240.052 132.817 249.096 M150.904 249.096 L 150.904 258.140 155.814 258.140 L 160.724 258.140 160.724 257.235 L 160.724 256.331 157.235 256.331 L 153.747 256.331 153.747 253.230 L 153.747 250.129 156.848 250.129 L 159.948 250.129 159.948 248.966 L 159.948 247.804 156.848 247.804 L 153.747 247.804 153.747 244.961 L 153.747 242.119 157.235 242.119 L 160.724 242.119 160.724 241.085 L 160.724 240.052 155.814 240.052 L 150.904 240.052 150.904 249.096 M186.047 241.085 L 186.047 242.119 188.501 242.119 L 190.956 242.119 190.956 250.129 L 190.956 258.140 192.248 258.140 L 193.540 258.140 193.540 250.129 L 193.540 242.119 195.866 242.119 L 198.191 242.119 198.191 241.085 L 198.191 240.052 192.119 240.052 L 186.047 240.052 186.047 241.085 M200.775 249.096 L 200.775 258.140 205.685 258.140 L 210.594 258.140 210.594 257.235 L 210.594 256.331 207.106 256.331 L 203.618 256.331 203.618 253.230 L 203.618 250.129 206.718 250.129 L 209.819 250.129 209.819 248.966 L 209.819 247.804 206.718 247.804 L 203.618 247.804 203.618 244.961 L 203.618 242.119 207.106 242.119 L 210.594 242.119 210.594 241.085 L 210.594 240.052 205.685 240.052 L 200.775 240.052 200.775 249.096 M234.109 249.096 L 234.109 258.140 235.525 258.140 L 236.942 258.140 237.011 251.383 L 237.080 244.627 241.577 251.383 L 246.074 258.140 247.327 258.140 L 248.579 258.140 248.579 249.096 L 248.579 240.052 247.291 240.052 L 246.003 240.052 245.934 246.952 L 245.866 253.853 244.729 252.056 C 244.104 251.067,242.080 247.962,240.233 245.155 L 236.873 240.052 235.491 240.052 L 234.109 240.052 234.109 249.096 M272.610 249.096 L 272.610 258.140 277.132 258.140 L 281.654 258.140 281.654 257.235 L 281.654 256.331 278.553 256.331 L 275.452 256.331 275.452 248.191 L 275.452 240.052 274.031 240.052 L 272.610 240.052 272.610 249.096 M323.773 249.096 L 323.773 258.140 325.194 258.140 L 326.615 258.140 326.615 249.096 L 326.615 240.052 325.194 240.052 L 323.773 240.052 323.773 249.096 M354.052 245.284 C 353.021 248.162,351.558 252.232,350.802 254.328 L 349.426 258.140 350.790 258.140 L 352.153 258.140 352.778 256.266 L 353.402 254.393 357.364 254.393 L 361.326 254.393 361.951 256.266 L 362.575 258.140 363.944 258.140 L 365.312 258.140 363.943 254.328 C 363.189 252.232,361.735 248.162,360.710 245.284 L 358.847 240.052 357.387 240.052 L 355.927 240.052 354.052 245.284 M47.784 242.525 C 52.424 243.903,53.778 250.907,50.087 254.444 C 46.619 257.769,40.723 256.119,39.363 251.443 C 37.698 245.716,42.260 240.884,47.784 242.525 M124.119 242.993 C 126.616 244.174,127.852 246.664,127.587 249.973 C 126.995 257.341,116.612 258.513,114.557 251.443 C 112.738 245.186,118.323 240.250,124.119 242.993 M262.771 242.525 C 267.411 243.903,268.765 250.907,265.074 254.444 C 261.556 257.817,255.461 256.152,254.092 251.443 C 252.404 245.636,257.077 240.834,262.771 242.525 M294.037 242.525 C 298.677 243.903,300.031 250.907,296.340 254.444 C 292.872 257.769,286.976 256.119,285.617 251.443 C 283.952 245.716,288.514 240.884,294.037 242.525 M359.006 248.045 C 359.809 250.310,360.465 252.228,360.465 252.309 C 360.465 252.389,359.070 252.455,357.364 252.455 C 355.659 252.455,354.264 252.389,354.264 252.309 C 354.264 251.889,357.209 243.928,357.364 243.928 C 357.465 243.928,358.204 245.781,359.006 248.045 " stroke="none" fill="#3c3c3c" fill-rule="evenodd"></path><path id="path2" d="M117.586 74.967 C 97.746 77.266,86.675 99.972,97.128 116.927 C 107.915 134.425,132.898 134.902,144.148 117.825 C 157.102 98.161,141.043 72.249,117.586 74.967 M274.160 74.966 C 254.539 77.211,243.507 99.446,253.513 116.580 C 263.047 132.904,286.296 135.130,298.429 120.881 C 315.006 101.415,299.494 72.067,274.160 74.966 M283.204 200.805 C 276.296 201.800,271.067 208.244,271.067 215.762 C 271.067 228.956,286.432 235.722,295.489 226.517 C 305.642 216.198,297.316 198.773,283.204 200.805 M113.178 201.377 C 98.342 205.771,98.733 226.246,113.727 230.137 C 119.155 231.546,127.399 228.823,127.388 225.626 C 127.377 222.493,124.083 220.400,121.622 221.961 C 117.404 224.636,111.761 222.916,110.089 218.446 C 107.520 211.581,114.801 205.519,121.270 209.137 C 123.876 210.594,125.722 210.027,126.976 207.384 C 129.012 203.094,120.253 199.282,113.178 201.377 M333.566 201.494 C 330.307 203.197,330.191 202.736,337.695 217.813 C 343.956 230.391,343.753 230.103,346.337 230.103 C 349.033 230.103,348.747 230.513,355.255 217.313 C 362.593 202.428,362.400 203.204,359.159 201.584 C 355.600 199.806,355.630 199.773,350.561 210.879 L 346.362 220.079 342.238 211.047 C 337.089 199.771,337.017 199.692,333.566 201.494 M1.415 201.394 C 0.005 202.009,0.000 202.061,0.000 215.658 C 0.000 230.680,-0.112 230.230,3.618 230.230 C 7.019 230.230,7.079 230.080,7.235 221.236 L 7.364 213.919 9.937 217.458 C 15.272 224.797,16.305 224.792,21.602 217.396 L 24.160 213.824 24.289 221.343 C 24.443 230.262,24.427 230.226,28.109 230.231 C 31.577 230.236,31.525 230.462,31.525 215.452 C 31.525 200.311,31.657 200.745,27.159 201.106 C 25.101 201.271,25.317 201.058,19.736 208.410 C 17.636 211.175,15.836 213.437,15.736 213.437 C 15.635 213.437,13.550 210.808,11.102 207.595 C 7.738 203.182,6.440 201.666,5.789 201.394 C 4.711 200.944,2.448 200.944,1.415 201.394 M34.703 201.282 C 33.356 201.856,33.333 202.090,33.333 215.499 C 33.333 229.477,33.326 229.418,35.025 229.978 C 36.640 230.511,39.262 230.173,39.979 229.339 L 40.568 228.653 40.568 215.633 L 40.568 202.613 39.947 201.891 C 39.274 201.108,36.005 200.728,34.703 201.282 M52.676 201.425 C 51.468 202.081,51.421 202.618,51.421 215.680 C 51.421 230.906,51.305 230.520,55.778 230.161 C 58.555 229.938,58.656 229.723,58.656 224.017 L 58.656 219.380 62.984 219.349 C 68.101 219.313,68.638 219.222,69.353 218.262 C 70.251 217.056,70.146 213.698,69.181 212.732 L 68.465 212.016 63.561 211.931 L 58.656 211.846 58.656 210.057 L 58.656 208.269 65.383 208.269 C 74.292 208.269,74.315 208.259,74.270 204.393 C 74.248 202.478,73.894 201.633,72.965 201.280 C 71.839 200.851,53.490 200.983,52.676 201.425 M87.334 201.649 C 86.398 202.289,75.075 225.120,74.760 227.003 C 74.414 229.068,78.927 231.422,80.756 230.131 C 81.037 229.934,81.901 228.480,82.678 226.901 L 84.090 224.031 89.406 224.031 L 94.722 224.031 96.133 226.891 C 96.909 228.465,97.719 229.902,97.932 230.085 C 99.649 231.559,104.414 229.211,104.065 227.064 C 103.938 226.281,93.206 203.758,92.302 202.377 C 91.364 200.944,88.894 200.582,87.334 201.649 M128.710 201.486 C 128.021 202.056,127.751 203.888,128.142 205.340 C 128.539 206.815,129.146 206.977,134.276 206.977 L 138.501 206.977 138.501 217.688 C 138.501 225.196,138.590 228.594,138.798 229.050 C 139.452 230.487,143.711 230.707,144.867 229.364 L 145.478 228.653 145.478 217.815 L 145.478 206.977 149.703 206.977 C 154.048 206.977,155.443 206.745,155.655 205.986 C 156.196 204.050,155.962 201.970,155.133 201.364 C 154.334 200.779,129.425 200.894,128.710 201.486 M157.702 201.658 L 156.977 202.282 156.977 211.025 L 156.978 219.767 157.655 221.622 C 162.149 233.919,177.882 233.785,181.934 221.415 C 182.543 219.555,182.558 219.303,182.558 210.925 L 182.558 202.340 181.970 201.752 C 180.935 200.716,177.273 200.723,176.234 201.763 L 175.452 202.544 175.452 210.030 C 175.452 216.857,175.405 217.668,174.920 219.238 C 173.325 224.404,167.292 224.976,165.019 220.178 L 164.212 218.475 164.138 210.724 C 164.061 202.569,163.960 201.813,162.890 201.326 C 161.638 200.755,158.519 200.955,157.702 201.658 M185.866 201.295 C 184.520 201.837,184.496 202.089,184.496 215.499 C 184.496 230.725,184.367 230.226,188.316 230.231 C 191.191 230.235,191.731 229.462,191.731 225.340 L 191.731 222.222 194.767 222.228 L 197.804 222.234 199.215 225.652 C 200.794 229.478,201.563 230.491,202.887 230.491 C 204.003 230.490,206.852 229.139,207.232 228.430 L 207.527 227.879 208.052 228.548 C 209.255 230.076,212.380 230.973,213.573 230.131 C 213.853 229.934,214.718 228.480,215.495 226.901 L 216.906 224.031 222.222 224.031 L 227.538 224.031 228.949 226.891 C 229.726 228.465,230.535 229.902,230.749 230.085 C 232.465 231.559,237.230 229.211,236.882 227.064 C 236.755 226.281,226.023 203.758,225.119 202.377 C 224.182 200.946,221.712 200.583,220.150 201.647 C 219.388 202.167,218.760 203.282,216.038 208.947 C 214.270 212.624,211.645 218.086,210.203 221.083 L 207.581 226.533 205.982 222.836 L 204.383 219.138 205.290 217.950 C 209.566 212.349,206.550 203.467,199.680 201.427 C 198.186 200.983,186.908 200.876,185.866 201.295 M248.067 201.358 C 246.787 202.021,246.778 202.117,246.774 215.401 C 246.769 231.739,245.843 230.071,254.984 230.184 C 263.689 230.292,265.847 229.712,268.345 226.594 C 270.773 223.564,270.791 217.016,268.378 215.013 C 268.097 214.780,268.155 214.481,268.698 213.372 C 270.775 209.129,268.825 204.174,264.083 201.645 C 262.915 201.022,249.189 200.776,248.067 201.358 M302.404 201.282 C 301.056 201.856,301.034 202.090,301.034 215.499 C 301.034 229.539,301.025 229.465,302.758 229.973 C 303.428 230.170,306.509 230.238,312.330 230.184 C 322.244 230.091,321.727 230.227,321.913 227.656 C 322.161 224.228,321.732 224.034,313.889 224.032 L 308.269 224.031 308.269 213.322 L 308.269 202.613 307.648 201.891 C 306.974 201.108,303.705 200.728,302.404 201.282 M324.626 201.282 C 323.278 201.856,323.256 202.090,323.256 215.499 C 323.256 229.477,323.249 229.418,324.948 229.978 C 326.562 230.511,329.184 230.173,329.901 229.339 L 330.491 228.653 330.491 215.633 L 330.491 202.613 329.870 201.891 C 329.196 201.108,325.927 200.728,324.626 201.282 M363.644 201.282 C 362.296 201.856,362.274 202.090,362.274 215.499 C 362.274 229.477,362.267 229.418,363.966 229.978 C 365.580 230.511,368.202 230.173,368.919 229.339 L 369.509 228.653 369.509 215.633 L 369.509 202.613 368.888 201.891 C 368.214 201.108,364.946 200.728,363.644 201.282 M383.200 201.649 C 382.263 202.289,370.941 225.120,370.626 227.003 C 370.280 229.068,374.792 231.422,376.622 230.131 C 376.902 229.934,377.767 228.480,378.544 226.901 L 379.955 224.031 385.295 224.031 L 390.635 224.031 390.965 224.828 C 391.147 225.267,391.440 225.770,391.617 225.947 C 391.794 226.124,392.348 227.080,392.847 228.072 C 393.346 229.063,393.936 230.025,394.157 230.209 C 395.744 231.526,400.249 229.024,399.922 227.007 C 399.801 226.264,389.032 203.697,388.168 202.377 C 387.230 200.944,384.759 200.582,383.200 201.649 M288.243 208.628 C 295.432 212.036,293.226 223.471,285.401 223.363 C 278.731 223.271,275.757 213.978,281.018 209.668 C 283.218 207.865,285.838 207.488,288.243 208.628 M198.118 208.700 C 200.593 209.875,200.593 213.381,198.118 214.556 C 197.446 214.874,196.493 214.987,194.470 214.987 L 191.731 214.987 191.731 211.628 L 191.731 208.269 194.470 208.269 C 196.493 208.269,197.446 208.382,198.118 208.700 M261.353 208.567 C 263.344 209.474,262.303 211.733,259.775 211.991 C 257.331 212.242,256.848 212.724,256.848 214.915 C 256.848 217.079,257.492 217.829,259.355 217.831 C 262.253 217.834,263.240 218.641,262.961 220.774 C 262.714 222.670,262.277 222.857,257.875 222.951 L 254.005 223.035 254.005 215.652 L 254.005 208.269 257.352 208.269 C 259.329 208.269,260.967 208.391,261.353 208.567 M90.638 215.633 L 91.727 217.829 89.406 217.829 L 87.084 217.829 88.173 215.633 C 88.772 214.425,89.327 213.437,89.406 213.437 C 89.484 213.437,90.039 214.425,90.638 215.633 M223.455 215.633 L 224.544 217.829 222.222 217.829 L 219.900 217.829 220.990 215.633 C 221.589 214.425,222.143 213.437,222.222 213.437 C 222.301 213.437,222.856 214.425,223.455 215.633 M386.504 215.633 L 387.593 217.829 385.271 217.829 L 382.950 217.829 384.039 215.633 C 384.638 214.425,385.193 213.437,385.271 213.437 C 385.350 213.437,385.905 214.425,386.504 215.633 " stroke="none" fill="#7b934c" fill-rule="evenodd"></path><path id="path3" d="M119.455 35.076 C 120.420 35.125,121.932 35.125,122.814 35.075 C 123.697 35.024,122.907 34.984,121.059 34.984 C 119.212 34.985,118.490 35.026,119.455 35.076 M275.528 35.076 C 276.493 35.125,278.004 35.125,278.887 35.075 C 279.769 35.024,278.979 34.984,277.132 34.984 C 275.284 34.985,274.562 35.026,275.528 35.076 M114.535 35.320 C 114.784 35.385,115.191 35.385,115.439 35.320 C 115.688 35.255,115.484 35.202,114.987 35.202 C 114.490 35.202,114.286 35.255,114.535 35.320 M126.680 35.320 C 126.928 35.385,127.335 35.385,127.584 35.320 C 127.833 35.255,127.629 35.202,127.132 35.202 C 126.634 35.202,126.431 35.255,126.680 35.320 M270.607 35.320 C 270.856 35.385,271.263 35.385,271.512 35.320 C 271.760 35.255,271.557 35.202,271.059 35.202 C 270.562 35.202,270.359 35.255,270.607 35.320 M282.752 35.320 C 283.001 35.385,283.408 35.385,283.656 35.320 C 283.905 35.255,283.702 35.202,283.204 35.202 C 282.707 35.202,282.503 35.255,282.752 35.320 M75.565 52.519 L 74.806 53.359 75.646 52.600 C 76.429 51.893,76.605 51.680,76.405 51.680 C 76.360 51.680,75.983 52.057,75.565 52.519 M321.705 51.760 C 321.705 51.805,322.083 52.183,322.545 52.600 L 323.385 53.359 322.626 52.519 C 321.919 51.737,321.705 51.561,321.705 51.760 M166.667 52.842 C 167.149 53.340,167.601 53.747,167.672 53.747 C 167.743 53.747,167.407 53.340,166.925 52.842 C 166.443 52.345,165.990 51.938,165.919 51.938 C 165.848 51.938,166.185 52.345,166.667 52.842 M231.008 53.101 C 230.380 53.740,229.925 54.264,229.996 54.264 C 230.067 54.264,230.638 53.740,231.266 53.101 C 231.894 52.461,232.349 51.938,232.278 51.938 C 232.207 51.938,231.635 52.461,231.008 53.101 M227.507 56.654 L 226.486 57.752 227.584 56.731 C 228.605 55.781,228.801 55.556,228.605 55.556 C 228.563 55.556,228.069 56.050,227.507 56.654 M170.543 56.718 C 171.025 57.216,171.477 57.623,171.548 57.623 C 171.619 57.623,171.283 57.216,170.801 56.718 C 170.319 56.221,169.866 55.814,169.795 55.814 C 169.724 55.814,170.061 56.221,170.543 56.718 M70.656 57.429 L 69.897 58.269 70.736 57.510 C 71.519 56.802,71.695 56.589,71.495 56.589 C 71.451 56.589,71.073 56.967,70.656 57.429 M326.615 56.670 C 326.615 56.714,326.993 57.092,327.455 57.510 L 328.295 58.269 327.536 57.429 C 326.828 56.646,326.615 56.470,326.615 56.670 M120.349 74.601 C 120.669 74.663,121.192 74.663,121.512 74.601 C 121.831 74.539,121.570 74.489,120.930 74.489 C 120.291 74.489,120.029 74.539,120.349 74.601 M276.938 74.601 C 277.258 74.663,277.781 74.663,278.101 74.601 C 278.421 74.539,278.159 74.489,277.519 74.489 C 276.880 74.489,276.618 74.539,276.938 74.601 M117.509 74.860 C 117.831 74.922,118.296 74.919,118.543 74.855 C 118.790 74.790,118.527 74.739,117.959 74.742 C 117.390 74.745,117.188 74.798,117.509 74.860 M123.453 74.860 C 123.774 74.922,124.239 74.919,124.486 74.855 C 124.733 74.790,124.470 74.739,123.902 74.742 C 123.333 74.745,123.131 74.798,123.453 74.860 M274.099 74.860 C 274.420 74.922,274.885 74.919,275.132 74.855 C 275.379 74.790,275.116 74.739,274.548 74.742 C 273.979 74.745,273.777 74.798,274.099 74.860 M280.042 74.860 C 280.363 74.922,280.828 74.919,281.075 74.855 C 281.322 74.790,281.059 74.739,280.491 74.742 C 279.922 74.745,279.720 74.798,280.042 74.860 M112.791 75.711 C 112.465 75.851,112.417 75.933,112.661 75.933 C 112.875 75.933,113.282 75.833,113.566 75.711 C 113.892 75.571,113.939 75.489,113.695 75.489 C 113.482 75.489,113.075 75.588,112.791 75.711 M268.346 76.089 C 267.348 76.546,267.812 76.553,268.992 76.098 C 269.490 75.907,269.722 75.746,269.509 75.742 C 269.296 75.738,268.773 75.894,268.346 76.089 M108.204 77.536 C 107.387 77.958,106.718 78.361,106.718 78.432 C 106.718 78.547,109.793 77.083,110.056 76.843 C 110.394 76.533,109.495 76.870,108.204 77.536 M288.394 76.843 C 288.657 77.084,291.731 78.547,291.731 78.431 C 291.731 78.286,288.746 76.744,288.466 76.744 C 288.367 76.744,288.334 76.789,288.394 76.843 M132.321 77.100 C 132.586 77.339,134.625 78.292,134.625 78.176 C 134.625 78.029,132.675 77.003,132.396 77.003 C 132.296 77.003,132.262 77.046,132.321 77.100 M264.793 77.537 C 264.260 77.818,263.824 78.106,263.824 78.177 C 263.824 78.292,265.865 77.338,266.128 77.100 C 266.426 76.831,265.650 77.085,264.793 77.537 M105.357 79.208 C 104.827 79.569,104.393 79.919,104.393 79.987 C 104.393 80.055,104.858 79.803,105.426 79.427 C 106.329 78.829,106.634 78.553,106.391 78.553 C 106.353 78.553,105.888 78.848,105.357 79.208 M291.990 78.633 C 291.990 78.693,292.484 79.069,293.088 79.467 C 293.692 79.865,294.050 80.026,293.883 79.824 C 293.562 79.436,291.990 78.447,291.990 78.633 M136.951 79.655 C 136.951 79.712,137.445 80.151,138.049 80.631 C 138.653 81.111,138.983 81.300,138.783 81.050 C 138.405 80.580,136.951 79.472,136.951 79.655 M101.026 82.881 L 99.354 84.625 101.098 82.953 C 102.057 82.034,102.842 81.249,102.842 81.209 C 102.842 81.019,102.579 81.261,101.026 82.881 M297.158 82.817 C 298.073 83.740,298.880 84.496,298.951 84.496 C 299.023 84.496,298.332 83.740,297.416 82.817 C 296.500 81.893,295.693 81.137,295.622 81.137 C 295.551 81.137,296.242 81.893,297.158 82.817 M140.568 82.817 C 141.340 83.598,142.030 84.238,142.101 84.238 C 142.172 84.238,141.599 83.598,140.827 82.817 C 140.055 82.035,139.365 81.395,139.294 81.395 C 139.223 81.395,139.797 82.035,140.568 82.817 M257.623 82.817 C 256.995 83.456,256.540 83.979,256.611 83.979 C 256.682 83.979,257.253 83.456,257.881 82.817 C 258.509 82.177,258.964 81.654,258.893 81.654 C 258.822 81.654,258.250 82.177,257.623 82.817 M300.636 87.016 C 301.035 87.620,301.410 88.114,301.470 88.114 C 301.657 88.114,300.667 86.541,300.279 86.220 C 300.077 86.054,300.238 86.411,300.636 87.016 M302.249 89.786 C 302.631 90.564,302.986 91.157,303.039 91.104 C 303.155 90.988,301.852 88.372,301.678 88.372 C 301.611 88.372,301.868 89.008,302.249 89.786 M53.807 94.574 C 53.807 95.071,53.860 95.275,53.925 95.026 C 53.990 94.777,53.990 94.370,53.925 94.121 C 53.860 93.873,53.807 94.076,53.807 94.574 M344.510 97.028 C 344.512 97.597,344.565 97.799,344.627 97.478 C 344.689 97.156,344.687 96.691,344.622 96.444 C 344.557 96.197,344.507 96.460,344.510 97.028 M53.554 97.287 C 53.556 97.855,53.609 98.057,53.671 97.736 C 53.733 97.415,53.731 96.949,53.666 96.702 C 53.601 96.455,53.551 96.718,53.554 97.287 M188.437 97.804 C 188.440 98.372,188.493 98.574,188.555 98.253 C 188.617 97.931,188.614 97.466,188.550 97.219 C 188.485 96.972,188.434 97.235,188.437 97.804 M209.626 98.062 C 209.629 98.630,209.682 98.833,209.743 98.511 C 209.805 98.190,209.803 97.725,209.738 97.478 C 209.674 97.231,209.623 97.494,209.626 98.062 M93.083 99.742 C 93.083 100.239,93.136 100.443,93.201 100.194 C 93.266 99.945,93.266 99.538,93.201 99.289 C 93.136 99.041,93.083 99.244,93.083 99.742 M305.228 99.742 C 305.228 100.239,305.281 100.443,305.346 100.194 C 305.411 99.945,305.411 99.538,305.346 99.289 C 305.281 99.041,305.228 99.244,305.228 99.742 M249.672 100.000 C 249.672 100.497,249.726 100.701,249.791 100.452 C 249.856 100.203,249.856 99.797,249.791 99.548 C 249.726 99.299,249.672 99.503,249.672 100.000 M344.800 102.713 C 344.800 104.276,344.843 104.883,344.894 104.060 C 344.946 103.238,344.945 101.959,344.893 101.218 C 344.841 100.477,344.799 101.150,344.800 102.713 M53.323 102.584 C 53.323 103.934,53.367 104.486,53.420 103.811 C 53.473 103.136,53.473 102.032,53.420 101.357 C 53.367 100.682,53.323 101.234,53.323 102.584 M148.639 105.168 C 148.639 105.665,148.692 105.869,148.757 105.620 C 148.822 105.371,148.822 104.964,148.757 104.716 C 148.692 104.467,148.639 104.671,148.639 105.168 M305.228 105.426 C 305.228 105.924,305.281 106.127,305.346 105.879 C 305.411 105.630,305.411 105.223,305.346 104.974 C 305.281 104.725,305.228 104.929,305.228 105.426 M188.442 107.494 C 188.442 108.133,188.493 108.395,188.554 108.075 C 188.616 107.755,188.616 107.232,188.554 106.912 C 188.493 106.592,188.442 106.854,188.442 107.494 M209.626 107.364 C 209.629 107.933,209.682 108.135,209.743 107.814 C 209.805 107.492,209.803 107.027,209.738 106.780 C 209.674 106.533,209.623 106.796,209.626 107.364 M53.554 108.140 C 53.556 108.708,53.609 108.910,53.671 108.589 C 53.733 108.267,53.731 107.802,53.666 107.555 C 53.601 107.308,53.551 107.571,53.554 108.140 M344.510 108.398 C 344.512 108.966,344.565 109.169,344.627 108.847 C 344.689 108.526,344.687 108.061,344.622 107.814 C 344.557 107.566,344.507 107.829,344.510 108.398 M297.144 122.416 L 296.253 123.385 297.222 122.495 C 297.755 122.005,298.191 121.569,298.191 121.526 C 298.191 121.328,297.973 121.514,297.144 122.416 M338.026 131.923 C 337.594 132.873,337.676 133.076,338.144 132.212 C 338.363 131.809,338.493 131.431,338.434 131.371 C 338.375 131.312,338.192 131.561,338.026 131.923 M59.948 131.882 C 59.948 132.159,60.717 133.592,60.866 133.592 C 60.937 133.592,60.803 133.214,60.568 132.752 C 60.088 131.809,59.948 131.612,59.948 131.882 M324.931 150.452 L 322.351 153.101 325.000 150.522 C 327.460 148.126,327.766 147.804,327.579 147.804 C 327.541 147.804,326.349 148.995,324.931 150.452 M72.997 150.388 C 74.271 151.667,75.370 152.713,75.441 152.713 C 75.512 152.713,74.529 151.667,73.256 150.388 C 71.983 149.109,70.883 148.062,70.812 148.062 C 70.741 148.062,71.724 149.109,72.997 150.388 M168.734 150.517 C 167.675 151.583,166.867 152.455,166.938 152.455 C 167.009 152.455,167.933 151.583,168.992 150.517 C 170.051 149.451,170.859 148.579,170.788 148.579 C 170.717 148.579,169.793 149.451,168.734 150.517 M229.199 150.517 C 230.115 151.441,230.922 152.196,230.993 152.196 C 231.064 152.196,230.373 151.441,229.457 150.517 C 228.542 149.593,227.735 148.837,227.664 148.837 C 227.592 148.837,228.283 149.593,229.199 150.517 M115.959 170.209 C 116.281 170.270,116.746 170.268,116.993 170.203 C 117.240 170.139,116.977 170.088,116.408 170.091 C 115.840 170.094,115.638 170.147,115.959 170.209 M125.261 170.209 C 125.583 170.270,126.048 170.268,126.295 170.203 C 126.542 170.139,126.279 170.088,125.711 170.091 C 125.142 170.094,124.940 170.147,125.261 170.209 M272.031 170.209 C 272.353 170.270,272.818 170.268,273.065 170.203 C 273.312 170.139,273.049 170.088,272.481 170.091 C 271.912 170.094,271.710 170.147,272.031 170.209 M281.334 170.209 C 281.655 170.270,282.120 170.268,282.367 170.203 C 282.614 170.139,282.351 170.088,281.783 170.091 C 281.214 170.094,281.012 170.147,281.334 170.209 " stroke="none" fill="#a5b190" fill-rule="evenodd"></path><path id="path4" d="M116.602 35.062 C 116.851 35.127,117.258 35.127,117.506 35.062 C 117.755 34.997,117.552 34.944,117.054 34.944 C 116.557 34.944,116.353 34.997,116.602 35.062 M124.612 35.062 C 124.861 35.127,125.268 35.127,125.517 35.062 C 125.766 34.997,125.562 34.944,125.065 34.944 C 124.567 34.944,124.364 34.997,124.612 35.062 M272.674 35.062 C 272.923 35.127,273.330 35.127,273.579 35.062 C 273.828 34.997,273.624 34.944,273.127 34.944 C 272.629 34.944,272.426 34.997,272.674 35.062 M280.685 35.062 C 280.933 35.127,281.340 35.127,281.589 35.062 C 281.838 34.997,281.634 34.944,281.137 34.944 C 280.640 34.944,280.436 34.997,280.685 35.062 M324.935 54.780 C 326.209 56.059,327.308 57.106,327.379 57.106 C 327.450 57.106,326.467 56.059,325.194 54.780 C 323.921 53.501,322.821 52.455,322.750 52.455 C 322.679 52.455,323.662 53.501,324.935 54.780 M72.991 54.845 L 70.930 56.977 73.062 54.916 C 75.042 53.001,75.312 52.713,75.123 52.713 C 75.084 52.713,74.125 53.672,72.991 54.845 M168.863 54.780 C 169.850 55.775,170.716 56.589,170.787 56.589 C 170.858 56.589,170.109 55.775,169.121 54.780 C 168.134 53.786,167.268 52.972,167.197 52.972 C 167.126 52.972,167.876 53.786,168.863 54.780 M229.062 54.845 L 227.519 56.460 229.134 54.918 C 230.023 54.069,230.749 53.343,230.749 53.303 C 230.749 53.112,230.494 53.345,229.062 54.845 M188.432 96.124 C 188.432 96.621,188.485 96.825,188.550 96.576 C 188.615 96.328,188.615 95.921,188.550 95.672 C 188.485 95.423,188.432 95.627,188.432 96.124 M209.621 96.382 C 209.621 96.880,209.674 97.083,209.739 96.835 C 209.804 96.586,209.804 96.179,209.739 95.930 C 209.674 95.682,209.621 95.885,209.621 96.382 M344.773 98.966 C 344.773 99.606,344.824 99.868,344.885 99.548 C 344.947 99.228,344.947 98.705,344.885 98.385 C 344.824 98.065,344.773 98.327,344.773 98.966 M53.300 99.225 C 53.300 99.864,53.351 100.126,53.412 99.806 C 53.474 99.486,53.474 98.963,53.412 98.643 C 53.351 98.324,53.300 98.585,53.300 99.225 M188.735 102.713 C 188.735 104.987,188.775 105.883,188.823 104.703 C 188.871 103.524,188.871 101.664,188.822 100.569 C 188.774 99.474,188.735 100.439,188.735 102.713 M209.406 102.713 C 209.406 104.845,209.446 105.683,209.495 104.575 C 209.543 103.467,209.543 101.723,209.494 100.699 C 209.445 99.675,209.405 100.581,209.406 102.713 M53.304 106.072 C 53.306 106.783,53.356 107.043,53.415 106.650 C 53.475 106.257,53.473 105.676,53.412 105.358 C 53.351 105.040,53.302 105.362,53.304 106.072 M344.773 106.460 C 344.773 107.099,344.824 107.361,344.885 107.041 C 344.947 106.722,344.947 106.198,344.885 105.879 C 344.824 105.559,344.773 105.820,344.773 106.460 M209.621 109.044 C 209.621 109.541,209.674 109.745,209.739 109.496 C 209.804 109.247,209.804 108.840,209.739 108.592 C 209.674 108.343,209.621 108.547,209.621 109.044 M226.098 147.368 C 226.098 147.412,226.476 147.790,226.938 148.207 L 227.778 148.966 227.019 148.127 C 226.311 147.344,226.098 147.168,226.098 147.368 M231.008 152.277 C 231.008 152.322,231.386 152.700,231.848 153.117 L 232.687 153.876 231.928 153.036 C 231.221 152.253,231.008 152.078,231.008 152.277 M114.276 170.204 C 114.525 170.269,114.932 170.269,115.181 170.204 C 115.430 170.139,115.226 170.086,114.729 170.086 C 114.231 170.086,114.028 170.139,114.276 170.204 M126.938 170.204 C 127.187 170.269,127.594 170.269,127.842 170.204 C 128.091 170.139,127.888 170.086,127.390 170.086 C 126.893 170.086,126.689 170.139,126.938 170.204 M270.349 170.204 C 270.598 170.269,271.005 170.269,271.253 170.204 C 271.502 170.139,271.298 170.086,270.801 170.086 C 270.304 170.086,270.100 170.139,270.349 170.204 M283.010 170.204 C 283.259 170.269,283.666 170.269,283.915 170.204 C 284.163 170.139,283.960 170.086,283.463 170.086 C 282.965 170.086,282.762 170.139,283.010 170.204 M119.198 170.477 C 120.306 170.525,122.050 170.525,123.074 170.476 C 124.098 170.427,123.191 170.387,121.059 170.388 C 118.928 170.388,118.090 170.428,119.198 170.477 M275.270 170.477 C 276.378 170.525,278.122 170.525,279.146 170.476 C 280.170 170.427,279.264 170.387,277.132 170.388 C 275.000 170.388,274.162 170.428,275.270 170.477 " stroke="none" fill="#88907a" fill-rule="evenodd"></path></g></svg>